<svg width="955.2125px" height="255.23749999999998px" xmlns="http://www.w3.org/2000/svg" viewBox="-227.60625 -52.61874999999999 955.2125 255.23749999999998" style="background: rgb(255, 255, 255);" preserveAspectRatio="xMidYMid"><defs><linearGradient id="editing-gradient-gradient" x1="0.5522642316338267" x2="0.44773576836617335" y1="0.9972609476841368" y2="0.0027390523158632996" gradientUnits="objectBoundingBox"><stop offset="0" stop-color="#1bcbb1"></stop><stop offset="1" stop-color="rgba(93.33333333333333%,0.42264150943397416%,9.979169811320798%,0.821)"></stop></linearGradient></defs><g><g transform="translate(-92.77499675750732, 124.63500213623047)"><path d="M58.01-97.03L91.76 0L75.41 0L50.23-72.77L24.79 0L8.31 0L42.32-97.03L58.01-97.03ZM41.26-30.85L58.93-30.85L62.75-20.17L37.57-20.17L41.26-30.85ZM128.54-97.16L128.54 0L112.46 0L112.46-97.16L128.54-97.16ZM204.35-97.16L221.48-13.32L239.94-97.16L246.14-97.16L246.14-61.96L231.77 0.53L211.07 0.53L186.42-97.16L204.35-97.16ZM275.01-13.32L293.60-97.16L311.53-97.16L285.29 0.53L264.73 0.53L251.54-59.46L251.54-97.16L257.87-97.16L275.01-13.32ZM331.04-49.04L331.04-49.04L331.04-49.04Q331.04-60.78 333.87-69.81L333.87-69.81L333.87-69.81Q336.71-78.84 341.78-85.10L341.78-85.10L341.78-85.10Q346.86-91.36 353.78-94.72L353.78-94.72L353.78-94.72Q360.70-98.09 368.88-98.61L368.88-98.61L368.88-85.43L368.88-85.43Q364.39-84.90 360.44-82.66L360.44-82.66L360.44-82.66Q356.48-80.42 353.58-76.07L353.58-76.07L353.58-76.07Q350.68-71.72 348.97-65.00L348.97-65.00L348.97-65.00Q347.26-58.27 347.12-49.04L347.12-49.04L347.12-49.04Q347.26-39.68 348.97-33.02L348.97-33.02L348.97-33.02Q350.68-26.37 353.65-21.88L353.65-21.88L353.65-21.88Q356.62-17.40 360.57-15.10L360.57-15.10L360.57-15.10Q364.53-12.79 368.88-12.39L368.88-12.39L368.88 0.66L368.88 0.66Q360.83 0.13 353.85-3.23L353.85-3.23L353.85-3.23Q346.86-6.59 341.78-12.85L341.78-12.85L341.78-12.85Q336.71-19.12 333.87-28.21L333.87-28.21L333.87-28.21Q331.04-37.31 331.04-49.04ZM374.15-85.56L374.15-98.61L374.15-98.61Q382.19-98.22 389.11-94.79L389.11-94.79L389.11-94.79Q396.04-91.36 401.11-85.10L401.11-85.10L401.11-85.10Q406.19-78.84 409.09-69.81L409.09-69.81L409.09-69.81Q411.99-60.78 411.99-49.04L411.99-49.04L411.99-49.04Q411.99-37.31 409.09-28.21L409.09-28.21L409.09-28.21Q406.19-19.12 401.11-12.85L401.11-12.85L401.11-12.85Q396.04-6.59 389.18-3.23L389.18-3.23L389.18-3.23Q382.32 0.13 374.15 0.66L374.15 0.66L374.15-12.39L374.15-12.39Q378.63-12.92 382.59-15.23L382.59-15.23L382.59-15.23Q386.54-17.53 389.44-21.95L389.44-21.95L389.44-21.95Q392.34-26.37 394.06-33.02L394.06-33.02L394.06-33.02Q395.77-39.68 395.90-49.04L395.90-49.04L395.90-49.04Q395.77-58.40 394.06-65.06L394.06-65.06L394.06-65.06Q392.34-71.72 389.38-76.14L389.38-76.14L389.38-76.14Q386.41-80.55 382.46-82.86L382.46-82.86L382.46-82.86Q378.50-85.17 374.15-85.56L374.15-85.56ZM434.00 0L434.00-97.16L449.82-97.16L449.82 0L434.00 0ZM477.77-38.23L499.92 0L483.18 0L464.85-35.20L464.85-35.20Q464.46-35.20 464.00-35.13L464.00-35.13L464.00-35.13Q463.54-35.07 462.61-35.07L462.61-35.07L462.61-35.07Q461.69-35.07 459.91-35.07L459.91-35.07L459.91-35.07Q458.13-35.07 455.23-35.07L455.23-35.07L455.23-46.67L464.19-46.67L464.19-46.67Q467.09-46.67 470.00-47.66L470.00-47.66L470.00-47.66Q472.90-48.65 475.27-50.89L475.27-50.89L475.27-50.89Q477.64-53.13 479.09-57.15L479.09-57.15L479.09-57.15Q480.54-61.17 480.54-67.10L480.54-67.10L480.54-67.10Q480.54-69.48 479.88-72.58L479.88-72.58L479.88-72.58Q479.22-75.67 477.18-78.51L477.18-78.51L477.18-78.51Q475.14-81.34 471.45-83.25L471.45-83.25L471.45-83.25Q467.75-85.17 461.69-85.17L461.69-85.17L455.23-85.17L455.23-97.16L461.95-97.16L461.95-97.16Q468.15-97.16 474.21-95.19L474.21-95.19L474.21-95.19Q480.28-93.21 485.09-89.25L485.09-89.25L485.09-89.25Q489.90-85.30 492.87-79.69L492.87-79.69L492.87-79.69Q495.83-74.09 495.83-67.10L495.83-67.10L495.83-67.10Q495.83-56.56 490.96-49.17L490.96-49.17L490.96-49.17Q486.08-41.79 477.77-38.23L477.77-38.23ZM521.41-97.16L537.50-97.16L537.50-12.00L582.19-12.00L582.19 0L521.41 0L521.41-97.16ZM598.80 0L598.80-97.16L614.62-97.16L614.62 0L598.80 0ZM620.02-97.16L628.07-97.16L628.07-97.16Q640.33-97.16 649.62-93.27L649.62-93.27L649.62-93.27Q658.92-89.38 665.05-82.92L665.05-82.92L665.05-82.92Q671.18-76.46 674.21-68.23L674.21-68.23L674.21-68.23Q677.24-59.99 677.24-51.28L677.24-51.28L677.24-51.28Q677.24-39.29 674.67-30.78L674.67-30.78L674.67-30.78Q672.10-22.28 668.14-16.55L668.14-16.55L668.14-16.55Q664.19-10.81 659.25-7.51L659.25-7.51L659.25-7.51Q654.30-4.22 649.69-2.57L649.69-2.57L649.69-2.57Q645.07-0.92 641.25-0.46L641.25-0.46L641.25-0.46Q637.43 0 635.58 0L635.58 0L620.02 0L620.02-11.60L630.31-11.60L630.31-11.60Q646.39-11.60 653.51-21.88L653.51-21.88L653.51-21.88Q660.63-32.17 660.63-51.68L660.63-51.68L660.63-51.68Q660.63-57.74 659.18-63.68L659.18-63.68L659.18-63.68Q657.73-69.61 653.58-74.42L653.58-74.42L653.58-74.42Q649.42-79.23 642.30-82.20L642.30-82.20L642.30-82.20Q635.19-85.17 623.85-85.17L623.85-85.17L620.02-85.17L620.02-97.16Z" fill="url(#editing-gradient-gradient)"></path></g></g><style>text {
  font-size: 64px;
  font-family: Arial Black;
  dominant-baseline: central;
  text-anchor: middle;
}</style></svg>